<?xml version="1.0" standalone="no"?>
<!DOCTYPE svg PUBLIC "-//W3C//DTD SVG 20010904//EN"
 "http://www.w3.org/TR/2001/REC-SVG-20010904/DTD/svg10.dtd">
<svg version="1.0" xmlns="http://www.w3.org/2000/svg"
 width="312.000000pt" height="312.000000pt" viewBox="0 0 312.000000 312.000000"
 preserveAspectRatio="xMidYMid meet">
<metadata>
Created by potrace 1.11, written by Peter Selinger 2001-2013
</metadata>
<g transform="translate(0.000000,312.000000) scale(0.100000,-0.100000)"
fill="#000000" stroke="none">
<path d="M1596 2550 c1 -99 4 -183 7 -186 5 -6 100 -7 327 -5 l60 1 0 185 0
185 -197 0 -198 0 1 -180z"/>
<path d="M1062 2119 c-15 -6 -17 -22 -15 -125 0 -66 2 -122 2 -126 1 -3 135
-6 299 -5 l297 1 0 -465 c-1 -428 -2 -469 -20 -524 -58 -181 -290 -256 -468
-152 -53 31 -116 103 -148 170 -13 26 -26 47 -30 47 -4 0 -22 -19 -41 -41 -18
-23 -37 -47 -43 -53 -11 -13 -84 -102 -103 -128 -12 -15 -9 -24 19 -65 109
-163 300 -258 526 -262 310 -6 558 162 627 425 13 50 15 152 16 682 l0 622
-22 0 c-195 5 -884 3 -896 -1z"/>
</g>
</svg>
