<?xml version="1.0" standalone="no"?>
<!DOCTYPE svg PUBLIC "-//W3C//DTD SVG 20010904//EN"
 "http://www.w3.org/TR/2001/REC-SVG-20010904/DTD/svg10.dtd">
<svg version="1.0" xmlns="http://www.w3.org/2000/svg"
 width="760.000000pt" height="760.000000pt" viewBox="0 0 760.000000 760.000000"
 preserveAspectRatio="xMidYMid meet">
<metadata>
Created by potrace 1.14, written by Peter Selinger 2001-2017
</metadata>
<g transform="translate(0.000000,760.000000) scale(0.100000,-0.100000)"
fill="#000000" stroke="none">
<path d="M659 7594 c-2 -19 -9 -644 -13 -1151 -2 -292 -7 -536 -10 -542 -4 -6
-2 -11 4 -11 6 0 8 -5 5 -10 -3 -6 -8 -247 -10 -538 -3 -290 -7 -779 -9 -1087
l-5 -560 87 -50 c48 -27 93 -51 100 -53 6 -2 12 -8 12 -13 0 -5 4 -9 9 -9 6 0
61 -31 124 -68 63 -38 121 -72 128 -76 8 -4 23 -12 34 -19 31 -19 117 -70 146
-87 45 -26 273 -161 289 -171 90 -56 303 -179 309 -179 5 0 14 -7 21 -15 30
-36 28 -96 35 907 2 240 6 442 10 447 3 6 1 11 -5 11 -6 0 -8 5 -4 11 3 6 8
198 10 428 1 229 3 451 3 494 1 46 5 77 11 77 6 0 34 -15 63 -33 29 -18 59
-36 67 -41 8 -4 24 -12 35 -19 21 -13 227 -135 257 -152 58 -33 227 -133 376
-222 95 -57 177 -103 182 -103 6 0 10 -4 10 -10 0 -5 4 -10 9 -10 5 0 89 -47
185 -105 97 -58 179 -105 183 -105 3 0 14 -6 22 -14 9 -7 36 -25 61 -38 25
-14 108 -63 185 -108 77 -46 159 -94 181 -107 l41 -23 144 81 c79 44 169 95
199 112 30 16 72 41 92 54 21 12 39 23 42 23 2 0 57 31 122 68 66 38 146 84
179 102 111 61 129 72 310 175 99 56 200 113 225 126 25 13 47 26 50 29 3 3
19 12 35 20 17 8 32 17 35 20 3 3 25 16 50 29 88 48 375 210 386 218 5 4 26
16 45 27 63 34 133 74 204 114 39 22 90 51 115 64 25 12 47 25 50 28 3 3 23
15 45 27 46 24 72 39 206 115 52 30 102 58 110 61 8 4 37 21 64 37 28 17 61
36 75 43 14 6 27 14 30 18 3 3 20 12 38 20 17 8 32 17 32 21 0 5 4 8 9 8 9 0
193 100 201 110 3 3 22 14 42 23 20 10 41 23 45 30 9 14 9 17 17 855 5 511 3
642 -7 636 -6 -4 -29 -18 -49 -31 -21 -13 -38 -20 -38 -16 0 5 -4 3 -8 -3 -4
-6 -54 -37 -112 -69 -58 -32 -130 -72 -160 -90 -30 -18 -75 -44 -100 -57 -25
-14 -63 -35 -85 -48 -22 -12 -101 -56 -175 -98 -74 -41 -176 -99 -227 -129
-50 -29 -96 -53 -102 -53 -6 0 -11 -4 -11 -8 0 -4 -12 -13 -27 -19 -16 -7 -55
-28 -88 -48 -33 -19 -76 -43 -95 -52 -19 -10 -39 -21 -45 -26 -10 -8 -380
-217 -505 -285 -36 -19 -76 -43 -90 -52 -14 -9 -43 -26 -65 -37 -75 -38 -110
-58 -115 -64 -3 -3 -10 -8 -15 -10 -6 -2 -102 -56 -214 -119 -111 -63 -235
-133 -275 -155 -40 -22 -83 -48 -96 -57 -14 -10 -28 -18 -32 -18 -4 0 -46 -22
-94 -50 -48 -27 -89 -50 -91 -50 -2 0 -24 -14 -49 -30 -24 -17 -44 -28 -44
-25 0 4 -12 -2 -28 -12 -36 -24 -59 -38 -103 -62 l-37 -20 -48 26 c-27 14 -56
31 -64 38 -8 6 -22 15 -30 19 -8 3 -31 16 -50 27 -19 12 -100 60 -180 107 -80
47 -185 109 -234 139 -48 29 -89 53 -90 53 -3 0 -299 175 -361 213 -22 13
-146 86 -275 162 -129 76 -268 158 -309 182 -41 25 -88 53 -105 63 -17 9 -127
74 -245 144 -117 69 -218 126 -222 126 -5 0 -9 3 -9 8 0 4 -10 12 -23 18 -12
5 -112 63 -222 128 -110 65 -213 126 -230 136 -16 9 -93 55 -170 100 -77 46
-167 99 -200 117 -33 19 -66 39 -72 45 -7 6 -13 7 -14 2z"/>
<path d="M6952 5568 c-7 -7 -12 -9 -12 -4 0 4 -12 -1 -27 -12 -26 -18 -45 -29
-170 -98 -27 -15 -110 -62 -185 -105 -76 -44 -141 -79 -144 -79 -4 0 -15 -6
-23 -14 -9 -7 -52 -32 -96 -56 -44 -23 -84 -46 -90 -50 -5 -4 -46 -27 -90 -51
-44 -23 -82 -45 -85 -48 -3 -3 -27 -17 -55 -31 -27 -14 -52 -27 -55 -30 -3 -3
-23 -14 -45 -25 -22 -11 -42 -23 -45 -26 -3 -3 -57 -34 -120 -69 -63 -35 -131
-72 -150 -83 -33 -19 -216 -123 -305 -172 -22 -13 -85 -49 -140 -80 -55 -32
-118 -67 -140 -79 -45 -25 -67 -38 -320 -181 -99 -56 -205 -116 -235 -133 -45
-25 -212 -119 -380 -214 -60 -35 -59 -31 -60 -166 0 -160 -8 -916 -15 -1557
-4 -269 -6 -499 -5 -510 1 -11 1 -24 1 -30 0 -19 -12 -1099 -15 -1382 -1 -155
0 -281 3 -279 3 2 57 32 120 67 62 35 146 82 185 104 40 22 83 48 96 58 14 9
30 17 36 17 6 0 23 9 38 21 14 11 26 17 26 12 0 -4 4 -3 8 3 4 6 36 27 72 46
36 20 89 50 118 67 29 17 55 31 58 31 2 0 21 10 42 23 20 13 62 37 92 54 148
81 265 147 270 153 3 3 16 11 30 17 14 7 52 28 85 47 33 20 67 39 75 42 8 4
56 31 107 61 50 29 96 53 102 53 6 0 11 5 11 10 0 6 4 10 8 10 9 0 117 60 495
274 103 58 192 106 197 106 6 0 10 4 10 9 0 5 8 11 18 14 9 3 43 21 74 39 68
40 329 187 367 207 14 8 29 18 32 23 3 6 9 8 12 6 4 -2 111 57 192 107 23 14
21 -34 28 722 3 248 8 456 11 462 4 5 3 12 -2 14 -4 3 -6 23 -5 44 5 73 10
698 6 706 -4 7 -42 -9 -53 -22 -3 -3 -25 -16 -50 -29 -50 -26 -79 -42 -329
-184 -95 -54 -177 -98 -181 -98 -5 0 -10 -3 -12 -7 -1 -5 -21 -17 -43 -28 -22
-11 -42 -22 -45 -25 -3 -3 -31 -19 -62 -35 -32 -17 -58 -33 -58 -37 0 -5 -9
-8 -19 -8 -11 0 -22 -4 -25 -9 -3 -5 -34 -23 -68 -41 -35 -18 -68 -36 -74 -41
-6 -5 -37 -23 -70 -40 -32 -17 -67 -38 -76 -47 -10 -8 -18 -11 -18 -7 0 4 -8
2 -17 -6 -10 -8 -35 -24 -56 -34 -21 -11 -40 -23 -42 -26 -2 -3 -5 -107 -7
-231 l-3 -226 -50 -27 c-27 -14 -63 -34 -80 -43 -131 -75 -253 -142 -257 -142
-3 0 -4 127 -2 283 1 155 4 355 5 445 l2 162 26 19 c27 19 202 118 416 236 39
21 72 42 75 45 3 3 20 12 38 19 17 8 32 18 32 23 0 5 4 7 9 3 5 -3 12 -1 15 4
3 5 29 21 58 36 29 15 58 32 65 37 7 5 27 17 45 27 58 30 171 93 246 138 41
24 76 43 78 43 2 0 38 20 78 45 41 25 77 45 79 45 3 0 43 22 89 49 45 27 110
64 143 83 33 18 93 51 133 73 l72 40 1 140 c1 172 8 903 12 1154 2 183 -2 208
-31 179z"/>
<path d="M2314 4468 c-1 -106 -5 -515 -8 -908 -4 -393 -9 -842 -10 -997 -1
-155 -5 -285 -8 -288 -3 -3 -40 14 -83 39 -42 26 -81 46 -86 46 -5 0 -9 4 -9
9 0 5 -6 11 -13 13 -15 3 -569 329 -577 338 -3 4 -12 9 -20 12 -8 3 -188 108
-400 233 -212 125 -408 240 -436 256 l-50 28 -1 -132 c-1 -73 -4 -409 -7 -747
l-6 -615 215 -128 c118 -70 219 -127 225 -127 5 0 10 -4 10 -8 0 -5 15 -16 33
-25 37 -19 61 -33 292 -170 94 -56 179 -107 190 -113 11 -6 50 -29 88 -52 37
-23 69 -42 72 -42 2 0 33 -18 67 -40 35 -22 69 -40 76 -40 6 0 12 -3 12 -7 0
-5 29 -24 65 -43 36 -19 65 -38 65 -42 0 -5 4 -8 10 -8 5 0 132 -73 282 -161
150 -89 287 -169 303 -179 17 -9 64 -37 105 -62 41 -25 131 -78 200 -119 69
-40 192 -113 273 -161 82 -48 152 -88 158 -88 5 0 9 -4 9 -9 0 -5 8 -11 18
-15 9 -3 35 -17 57 -31 22 -14 47 -28 55 -32 8 -3 27 -15 42 -25 14 -10 30
-18 35 -18 9 0 11 83 18 955 5 502 15 1502 21 2055 3 250 5 462 5 470 -1 61 0
155 2 273 l2 139 -80 48 c-44 26 -94 56 -112 66 -30 18 -358 211 -441 261 -20
12 -44 25 -52 30 -8 4 -50 29 -93 55 -43 26 -80 48 -83 48 -2 0 -21 11 -42 24
-62 40 -361 216 -374 221 -10 4 -13 -37 -14 -187z"/>
</g>
</svg>
