<svg fill="none" height="24" viewBox="0 0 68 24" width="68" xmlns="http://www.w3.org/2000/svg" aria-hidden="true" focusable="false"><path d="m13.0431.440365v15.155935c0 3.8899-1.558 5.7982-4.78249 5.7982-3.297 0-5.03607-2.2385-5.28969-5.9817l-2.97092.1835c.217384 5.5046 3.36946 8.4037 8.18815 8.4037 4.85495 0 7.97075-2.789 7.97075-8.3303v-15.229335z"/><path d="m32.889 23.5596 6.6665-19.88988h.1449v19.88988h3.1521v-23.119235h-4.9636l-6.0868 18.825735h-.1087l-6.4128-18.825735h-5.0361v23.119235h2.9347v-19.88988h.1449l6.9201 19.88988z"/><path d="m57.3482 24c3.5506 0 6.7751-1.6147 7.7896-4.5505v4.1101h2.8622v-11.4128h-9.8185v2.4954h6.9563c-.3986 3.9633-3.1521 6.6789-7.4273 6.6789-4.9274 0-8.2606-3.5596-8.2606-9.2844 0-5.72477 3.297-9.3211 7.9707-9.3211 4.6013 0 7.2824 2.78899 7.536 7.00917l3.0072-.18349c-.3986-5.90825-4.1303-9.54128-10.5794-9.54128-6.3042 0-11.1591 4.88074-11.1591 12 0 7.1927 4.6738 12 11.1229 12z"/></svg>